<svg width="143" height="172" viewBox="0 0 143 172" fill="none" xmlns="http://www.w3.org/2000/svg">
<path d="M96.4078 64.4016C92.7257 55.5169 83.2218 51.6085 67.9127 52.6603C55.3605 40.307 41.4833 34.4239 22.6649 52.6603C15.7239 51.9691 9.21084 51.7111 5.73389 54.5214L9.34851 78.4342L52.5919 89.6031L96.4078 64.4016Z" fill="#5BC5DF"/>
<path d="M138.505 73.9953C134.377 69.0837 126.354 67.8485 116.883 67.9812C103.71 51.2279 81.7808 54.5549 71.2062 68.6974C57.2136 64.7612 47.1183 66.4155 41.8522 74.9975L65.9077 88.0274L95.5482 97.4779L129.333 101.98L138.505 73.9953Z" fill="#3189AA"/>
<path d="M12.6639 43.1665L37.6045 32.3655V19.7648L71.2158 11.7697L105.381 19.7798V32.3193L130.563 43.5639C131.297 49.7074 132.361 65.119 127.884 83.71C127.248 86.3545 126.519 88.976 125.699 91.5696C115.753 86.8642 106.162 88.1389 96.8376 93.8995C87.6703 87.0492 77.8269 83.3371 66.7668 85.26C52.1689 67.581 33.9397 62.4319 12.0814 69.8005C10.7593 57.3435 11.9142 47.6189 12.6644 43.1665M141.399 38.5335L140.834 35.6045L116.836 24.8888V10.6995L71.1969 0L26.1492 10.7146V24.8425L2.77034 34.968L2.07807 37.6975C1.87017 38.5179 -2.95119 58.0988 2.84391 84.2094C6.23837 99.504 12.587 113.911 21.7158 127.028C33.0474 143.313 48.6948 157.61 68.2238 169.523L71.1077 171.283L74.0423 169.611C93.0011 158.806 108.355 145.209 119.679 129.199C128.77 116.345 135.277 101.942 139.021 86.3921C145.393 59.9276 141.565 39.3947 141.399 38.5335Z" fill="#2F6E5B"/>
<path d="M71.3452 0L71.1072 171.283C160.27 122.25 140.834 35.6045 140.834 35.6045L116.836 24.8894V10.6995L71.3452 0Z" fill="black" fill-opacity="0.15"/>
</svg>
